<mxfile host="Electron" agent="Mozilla/5.0 (Windows NT 10.0; Win64; x64) AppleWebKit/537.36 (KHTML, like Gecko) draw.io/24.7.17 Chrome/128.0.6613.36 Electron/32.0.1 Safari/537.36" version="24.7.17">
  <diagram name="Страница — 1" id="5Izfi2tvQ-wSJPvn5y2w">
    <mxGraphModel dx="282" dy="629" grid="1" gridSize="10" guides="1" tooltips="1" connect="1" arrows="1" fold="1" page="1" pageScale="1" pageWidth="827" pageHeight="1169" math="0" shadow="0">
      <root>
        <mxCell id="0" />
        <mxCell id="1" parent="0" />
        <mxCell id="5VYLgZ-4gWc8vY1-5PUX-9" style="edgeStyle=orthogonalEdgeStyle;rounded=0;orthogonalLoop=1;jettySize=auto;html=1;endArrow=none;endFill=0;" edge="1" parent="1" source="UB4fA-UfrEprOVerPI20-1" target="5VYLgZ-4gWc8vY1-5PUX-8">
          <mxGeometry relative="1" as="geometry" />
        </mxCell>
        <mxCell id="5VYLgZ-4gWc8vY1-5PUX-13" style="edgeStyle=orthogonalEdgeStyle;rounded=0;orthogonalLoop=1;jettySize=auto;html=1;endArrow=none;endFill=0;entryX=0.5;entryY=1;entryDx=0;entryDy=0;" edge="1" parent="1" source="UB4fA-UfrEprOVerPI20-1" target="5VYLgZ-4gWc8vY1-5PUX-12">
          <mxGeometry relative="1" as="geometry">
            <mxPoint x="170" y="510" as="targetPoint" />
          </mxGeometry>
        </mxCell>
        <mxCell id="5VYLgZ-4gWc8vY1-5PUX-19" style="edgeStyle=orthogonalEdgeStyle;rounded=0;orthogonalLoop=1;jettySize=auto;html=1;curved=1;entryX=0;entryY=0.5;entryDx=0;entryDy=0;endArrow=none;endFill=0;" edge="1" parent="1" source="UB4fA-UfrEprOVerPI20-1" target="5VYLgZ-4gWc8vY1-5PUX-18">
          <mxGeometry relative="1" as="geometry">
            <mxPoint x="235" y="720" as="targetPoint" />
          </mxGeometry>
        </mxCell>
        <mxCell id="UB4fA-UfrEprOVerPI20-1" value="Клиент" style="shape=umlActor;verticalLabelPosition=bottom;verticalAlign=top;html=1;outlineConnect=0;" parent="1" vertex="1">
          <mxGeometry x="220" y="540" width="30" height="50" as="geometry" />
        </mxCell>
        <mxCell id="5VYLgZ-4gWc8vY1-5PUX-6" style="edgeStyle=orthogonalEdgeStyle;rounded=0;orthogonalLoop=1;jettySize=auto;html=1;entryX=0.5;entryY=1;entryDx=0;entryDy=0;endArrow=none;endFill=0;" edge="1" parent="1" source="UB4fA-UfrEprOVerPI20-2" target="5VYLgZ-4gWc8vY1-5PUX-5">
          <mxGeometry relative="1" as="geometry" />
        </mxCell>
        <mxCell id="5VYLgZ-4gWc8vY1-5PUX-11" style="edgeStyle=orthogonalEdgeStyle;rounded=0;orthogonalLoop=1;jettySize=auto;html=1;endArrow=none;endFill=0;" edge="1" parent="1" source="UB4fA-UfrEprOVerPI20-2" target="5VYLgZ-4gWc8vY1-5PUX-10">
          <mxGeometry relative="1" as="geometry" />
        </mxCell>
        <mxCell id="5VYLgZ-4gWc8vY1-5PUX-14" style="edgeStyle=orthogonalEdgeStyle;rounded=0;orthogonalLoop=1;jettySize=auto;html=1;entryX=1;entryY=0;entryDx=0;entryDy=0;endArrow=none;endFill=0;" edge="1" parent="1" source="UB4fA-UfrEprOVerPI20-2" target="5VYLgZ-4gWc8vY1-5PUX-12">
          <mxGeometry relative="1" as="geometry">
            <Array as="points">
              <mxPoint x="175" y="380" />
              <mxPoint x="170" y="380" />
              <mxPoint x="170" y="432" />
            </Array>
          </mxGeometry>
        </mxCell>
        <mxCell id="UB4fA-UfrEprOVerPI20-2" value="Тренер" style="shape=umlActor;verticalLabelPosition=bottom;verticalAlign=top;html=1;outlineConnect=0;" parent="1" vertex="1">
          <mxGeometry x="160" y="280" width="30" height="50" as="geometry" />
        </mxCell>
        <mxCell id="UB4fA-UfrEprOVerPI20-3" value="Администратор" style="shape=umlActor;verticalLabelPosition=bottom;verticalAlign=top;html=1;outlineConnect=0;" parent="1" vertex="1">
          <mxGeometry x="560" y="510" width="30" height="60" as="geometry" />
        </mxCell>
        <mxCell id="5VYLgZ-4gWc8vY1-5PUX-5" value="Внесение данных тренировок" style="ellipse;whiteSpace=wrap;html=1;" vertex="1" parent="1">
          <mxGeometry x="60" y="80" width="120" height="80" as="geometry" />
        </mxCell>
        <mxCell id="5VYLgZ-4gWc8vY1-5PUX-23" style="edgeStyle=orthogonalEdgeStyle;rounded=0;orthogonalLoop=1;jettySize=auto;html=1;endArrow=none;endFill=0;exitX=1;exitY=0;exitDx=0;exitDy=0;entryX=0.25;entryY=0.1;entryDx=0;entryDy=0;entryPerimeter=0;" edge="1" parent="1" source="5VYLgZ-4gWc8vY1-5PUX-8" target="5VYLgZ-4gWc8vY1-5PUX-27">
          <mxGeometry relative="1" as="geometry" />
        </mxCell>
        <mxCell id="5VYLgZ-4gWc8vY1-5PUX-8" value="Составление просьбы о курсе" style="ellipse;whiteSpace=wrap;html=1;" vertex="1" parent="1">
          <mxGeometry x="310" y="440" width="120" height="80" as="geometry" />
        </mxCell>
        <mxCell id="5VYLgZ-4gWc8vY1-5PUX-10" value="Составление&lt;div&gt;обучения&lt;/div&gt;&lt;div&gt;элементу&lt;/div&gt;" style="ellipse;whiteSpace=wrap;html=1;" vertex="1" parent="1">
          <mxGeometry x="250" y="100" width="120" height="80" as="geometry" />
        </mxCell>
        <mxCell id="5VYLgZ-4gWc8vY1-5PUX-12" value="Запись на тренировку" style="ellipse;whiteSpace=wrap;html=1;" vertex="1" parent="1">
          <mxGeometry x="40" y="420" width="120" height="80" as="geometry" />
        </mxCell>
        <mxCell id="5VYLgZ-4gWc8vY1-5PUX-25" style="edgeStyle=orthogonalEdgeStyle;rounded=0;orthogonalLoop=1;jettySize=auto;html=1;endArrow=none;endFill=0;" edge="1" parent="1" source="5VYLgZ-4gWc8vY1-5PUX-18" target="UB4fA-UfrEprOVerPI20-3">
          <mxGeometry relative="1" as="geometry" />
        </mxCell>
        <mxCell id="5VYLgZ-4gWc8vY1-5PUX-18" value="Покупка&lt;div&gt;курса&lt;/div&gt;" style="ellipse;whiteSpace=wrap;html=1;" vertex="1" parent="1">
          <mxGeometry x="294" y="620" width="120" height="80" as="geometry" />
        </mxCell>
        <mxCell id="5VYLgZ-4gWc8vY1-5PUX-22" value="Составление&lt;div&gt;курса&lt;/div&gt;" style="ellipse;whiteSpace=wrap;html=1;" vertex="1" parent="1">
          <mxGeometry x="680" y="500" width="120" height="80" as="geometry" />
        </mxCell>
        <mxCell id="5VYLgZ-4gWc8vY1-5PUX-24" style="edgeStyle=orthogonalEdgeStyle;rounded=0;orthogonalLoop=1;jettySize=auto;html=1;entryX=0.75;entryY=0.1;entryDx=0;entryDy=0;entryPerimeter=0;endArrow=none;endFill=0;" edge="1" parent="1" source="5VYLgZ-4gWc8vY1-5PUX-22" target="5VYLgZ-4gWc8vY1-5PUX-27">
          <mxGeometry relative="1" as="geometry" />
        </mxCell>
        <mxCell id="5VYLgZ-4gWc8vY1-5PUX-27" value="Составитель курса" style="shape=umlActor;verticalLabelPosition=bottom;verticalAlign=top;html=1;outlineConnect=0;" vertex="1" parent="1">
          <mxGeometry x="650" y="290" width="30" height="60" as="geometry" />
        </mxCell>
        <mxCell id="5VYLgZ-4gWc8vY1-5PUX-28" style="edgeStyle=orthogonalEdgeStyle;rounded=0;orthogonalLoop=1;jettySize=auto;html=1;entryX=0.25;entryY=0.1;entryDx=0;entryDy=0;entryPerimeter=0;endArrow=none;endFill=0;" edge="1" parent="1" source="5VYLgZ-4gWc8vY1-5PUX-10" target="5VYLgZ-4gWc8vY1-5PUX-27">
          <mxGeometry relative="1" as="geometry" />
        </mxCell>
        <mxCell id="5VYLgZ-4gWc8vY1-5PUX-30" style="edgeStyle=orthogonalEdgeStyle;rounded=0;orthogonalLoop=1;jettySize=auto;html=1;entryX=0.75;entryY=0.1;entryDx=0;entryDy=0;entryPerimeter=0;endArrow=none;endFill=0;" edge="1" parent="1" source="5VYLgZ-4gWc8vY1-5PUX-22" target="UB4fA-UfrEprOVerPI20-3">
          <mxGeometry relative="1" as="geometry" />
        </mxCell>
      </root>
    </mxGraphModel>
  </diagram>
</mxfile>
